<svg width="14" height="13" viewBox="0 0 14 13" fill="none" xmlns="http://www.w3.org/2000/svg">
<path d="M0.999995 0.5H13C13.1768 0.5 13.3464 0.570238 13.4714 0.695262C13.5964 0.820286 13.6667 0.989856 13.6667 1.16667V11.8333C13.6667 12.0101 13.5964 12.1797 13.4714 12.3047C13.3464 12.4298 13.1768 12.5 13 12.5H0.999995C0.823184 12.5 0.653615 12.4298 0.52859 12.3047C0.403566 12.1797 0.333328 12.0101 0.333328 11.8333V1.16667C0.333328 0.989856 0.403566 0.820286 0.52859 0.695262C0.653615 0.570238 0.823184 0.5 0.999995 0.5V0.5ZM7.04 6.28867L2.76533 2.65867L1.902 3.67467L7.04866 8.04467L12.1027 3.67133L11.2307 2.66267L7.04066 6.28867H7.04Z" fill="#62748E"/>
</svg>
